<?xml version="1.0" encoding="UTF-8"?>
<!--Generator: Apple Native CoreSVG 175.5-->
<!DOCTYPE svg
PUBLIC "-//W3C//DTD SVG 1.1//EN"
       "http://www.w3.org/Graphics/SVG/1.1/DTD/svg11.dtd">
<svg version="1.1" xmlns="http://www.w3.org/2000/svg" xmlns:xlink="http://www.w3.org/1999/xlink" width="1005.19" height="1086.43">
 <g>
  <rect height="1086.43" opacity="0" width="1005.19" x="0" y="0"/>
  <path d="M31.1614 626.465L75.595 626.465L75.595 528.32L31.1614 528.32ZM262.118 1086.43C323.154 1086.43 351.474 1030.27 318.271 970.703L135.654 647.949C120.029 621.094 96.5911 608.887 67.2942 608.887C21.3958 608.887-3.50654 643.066 0.399714 688.477C10.1653 746.582 49.2278 839.355 96.5911 915.527C171.298 1041.99 214.755 1086.43 262.118 1086.43ZM408.115 989.746C439.365 971.68 447.665 931.152 427.646 896.484L263.095 605.957C243.075 571.289 204.013 558.594 173.251 576.66C154.208 586.914 149.814 604.98 159.579 622.07L361.728 977.539C371.982 995.117 389.56 1000 408.115 989.746ZM974.033 626.465L974.033 528.32L929.599 528.32L929.599 626.465ZM743.075 1086.43C790.439 1086.43 833.896 1041.99 908.603 915.527C955.478 839.355 995.029 746.582 1004.79 688.477C1008.7 643.066 983.798 608.887 937.9 608.887C908.603 608.887 885.165 621.094 869.54 647.949L686.923 970.703C653.232 1030.27 682.04 1086.43 743.075 1086.43ZM597.079 989.746C615.634 1000 633.212 995.117 642.978 977.539L845.126 622.07C855.38 604.98 850.986 586.914 831.943 576.66C800.693 558.594 762.118 571.289 741.611 605.957L577.06 896.484C557.04 931.152 565.829 971.68 597.079 989.746ZM14.5599 520.02C14.5599 542.969 29.2083 557.129 52.1575 557.129C75.1067 557.129 88.7786 542.969 88.7786 520.02C91.22 256.836 247.958 89.8438 502.353 89.8438C757.236 89.8438 913.486 256.836 915.927 520.02C915.927 542.969 930.087 557.129 953.036 557.129C975.986 557.129 990.146 542.969 990.146 520.02C990.146 220.703 806.064 15.1367 502.353 15.1367C198.642 15.1367 14.5599 220.703 14.5599 520.02ZM217.197 259.766C297.275 216.309 391.025 194.824 502.353 194.824C614.169 194.824 707.919 216.309 787.509 259.766C723.544 177.734 632.236 136.719 502.353 136.719C372.958 136.719 281.65 177.734 217.197 259.766Z" fill="#000000" fill-opacity="0.85"/>
 </g>
</svg>
